<svg width="270" height="171" viewBox="0 0 270 171" fill="none" xmlns="http://www.w3.org/2000/svg">
<path fill-rule="evenodd" clip-rule="evenodd" d="M24.8711 349.202C-7.46798 343.751 6.12866 294.375 -14.1548 271.663C-25.7119 258.722 -48.1667 258.594 -64.0239 249.664C-86.9172 236.771 -121.568 229.877 -128.478 207.28C-135.014 185.904 -67.0697 163.303 -49.4396 147.988C-34.01 134.585 -81.4054 92.8611 -75.238 73.9015C-69.7806 57.1248 -49.9477 21.5892 -30.7731 3.23459C-12.962 -13.8148 23.0491 68.8338 44.451 87.432C72.1333 111.488 122.444 100.532 135.49 133.356C141.88 149.435 159.049 194.548 172.734 202.17C183.365 208.092 231.753 225.902 243.636 234.358C258.931 245.243 275.954 267.291 267.055 281.225C255.35 299.552 129.604 245.404 114.96 255.704C101.99 264.828 93.1208 276.846 82.4291 287.942C62.7059 308.412 55.9018 354.432 24.8711 349.202Z" fill="#FFD28A" fill-opacity="0.7"/>
</svg>
