<svg width="792" height="507" viewBox="0 0 792 507" fill="none" xmlns="http://www.w3.org/2000/svg">
<path fill-rule="evenodd" clip-rule="evenodd" d="M549.415 -298C628.078 -297.942 615.513 -175.744 672.51 -130.069C704.985 -104.044 758.153 -112.654 799.209 -97.8227C858.481 -76.4109 943.185 -73.8557 968.5 -23.1434C992.446 24.826 840.692 105.259 805.066 148.484C773.887 186.315 902.564 266.202 895.5 313.5C889.249 355.352 856.439 447.285 818.366 498.315C783 545.715 665.009 364.5 607 329C531.968 283.083 417.306 328.969 373.416 256.5C351.916 221 293.396 121.099 258 108.5C230.5 98.7119 108.968 75.788 77.5001 60.5C37.0001 40.8237 -12.0198 -4.57545 3.50002 -41.0683C23.9137 -89.0683 342.866 -10.8908 373.416 -41.0683C400.477 -67.7985 416.687 -99.749 437.575 -130.241C476.106 -186.492 473.935 -298.056 549.415 -298Z" fill="#F3FAFF"/>
</svg>
